<svg width="190" height="143" viewBox="0 0 190 143" fill="none" xmlns="http://www.w3.org/2000/svg">
<g clip-path="url(#clip0_459_546)">
<path fill-rule="evenodd" clip-rule="evenodd" d="M98.4813 0C117.239 0 132.446 15.1434 132.446 33.8226C132.446 52.5017 117.239 67.6452 98.4813 67.6452C92.1768 67.6452 86.288 65.9376 81.2306 62.9538L66.907 64.7303L69.9899 52.243C66.5259 46.948 64.4995 40.6181 64.4995 33.8226C64.5168 15.1434 79.7238 0 98.4813 0Z" fill="#58595B"/>
<path fill-rule="evenodd" clip-rule="evenodd" d="M98.3774 5.17432C113.983 5.17432 126.644 17.7823 126.644 33.3224C126.644 48.8625 113.983 61.4705 98.3774 61.4705C93.1294 61.4705 88.2279 60.0562 84.0191 57.5726L72.103 59.0559L74.6664 48.6556C71.7739 44.2402 70.1112 38.9796 70.1112 33.3224C70.1112 17.7823 82.7721 5.17432 98.3774 5.17432Z" fill="#009DD9"/>
<path fill-rule="evenodd" clip-rule="evenodd" d="M102.534 23.8188H94.2033V29.1656H88.8341V37.4617H94.2033V42.8085H102.534V37.4617H107.903V29.1656H102.534V23.8188Z" fill="white"/>
<path d="M16.3328 94.9482C15.2936 96.8454 13.3191 99.4326 9.35281 99.6395C5.0055 99.8465 0.138588 97.3801 2.87346e-05 91.9298C-0.173171 86.1346 5.07478 83.4785 8.74661 83.4785C10.8596 83.4785 12.8168 84.2719 14.5661 85.1343V87.9974C13.7348 86.1002 10.392 83.1336 7.25709 83.8407C3.15226 84.7721 1.64543 90.0671 3.04834 94.0513C4.27806 97.5526 7.11853 99.4153 10.4959 99.0359C13.804 98.7082 15.6053 95.8106 16.1422 94.8447L16.3501 94.9482H16.3328Z" fill="white"/>
<path d="M16.3328 94.9482C15.2936 96.8454 13.3191 99.4326 9.35281 99.6395C5.0055 99.8465 0.138588 97.3801 2.87346e-05 91.9298C-0.173171 86.1346 5.07478 83.4785 8.74661 83.4785C10.8596 83.4785 12.8168 84.2719 14.5661 85.1343V87.9974C13.7348 86.1002 10.392 83.1336 7.25709 83.8407C3.15226 84.7721 1.64543 90.0671 3.04834 94.0513C4.27806 97.5526 7.11853 99.4153 10.4959 99.0359C13.804 98.7082 15.6053 95.8106 16.1422 94.8447L16.3501 94.9482H16.3328Z" fill="white"/>
<path d="M35.3154 91.5503C35.3154 96.6039 30.7083 99.6394 26.4996 99.6394C22.2908 99.6394 17.6837 96.6039 17.6837 91.5503C17.6837 86.4968 22.2908 83.4612 26.4996 83.4612C30.7083 83.4612 35.3154 86.4968 35.3154 91.5503ZM32.5789 91.5503C32.5789 87.1522 29.8077 83.7371 26.4996 83.7371C23.1915 83.7371 20.4203 87.1694 20.4203 91.5503C20.4203 95.9312 23.1915 99.3635 26.4996 99.3635C29.8077 99.3635 32.5789 95.9312 32.5789 91.5503Z" fill="white"/>
<path d="M35.3154 91.5503C35.3154 96.6039 30.7083 99.6394 26.4996 99.6394C22.2908 99.6394 17.6837 96.6039 17.6837 91.5503C17.6837 86.4968 22.2908 83.4612 26.4996 83.4612C30.7083 83.4612 35.3154 86.4968 35.3154 91.5503ZM32.5789 91.5503C32.5789 87.1522 29.8077 83.7371 26.4996 83.7371C23.1915 83.7371 20.4203 87.1694 20.4203 91.5503C20.4203 95.9312 23.1915 99.3635 26.4996 99.3635C29.8077 99.3635 32.5789 95.9312 32.5789 91.5503Z" fill="white"/>
<path d="M52.7219 99.4671H50.0547C49.9507 98.3632 49.2579 90.5155 49.0847 88.8253C48.8249 86.3244 47.5779 83.4958 44.7028 84.0649C40.9617 84.7548 40.2862 91.7574 40.2862 94.5515V99.4671H37.6536V83.7027H40.2862V91.7229C40.7192 87.9629 41.8623 83.4785 46.1923 83.4785C48.9289 83.4785 51.2324 85.3413 51.6654 89.3082C51.9945 92.568 52.5314 98.2597 52.7046 99.4843L52.7219 99.4671Z" fill="white"/>
<path d="M52.7219 99.4671H50.0547C49.9507 98.3632 49.2579 90.5155 49.0847 88.8253C48.8249 86.3244 47.5779 83.4958 44.7028 84.0649C40.9617 84.7548 40.2862 91.7574 40.2862 94.5515V99.4671H37.6536V83.7027H40.2862V91.7229C40.7192 87.9629 41.8623 83.4785 46.1923 83.4785C48.9289 83.4785 51.2324 85.3413 51.6654 89.3082C51.9945 92.568 52.5314 98.2597 52.7046 99.4843L52.7219 99.4671Z" fill="white"/>
<path d="M61.4512 96.8971L62.5597 99.467H59.9271L53.0857 83.4612H55.7183L61.33 96.6039L66.6819 83.4612H66.9243L61.4859 96.8971H61.4512Z" fill="white"/>
<path d="M61.4512 96.8971L62.5597 99.467H59.9271L53.0857 83.4612H55.7183L61.33 96.6039L66.6819 83.4612H66.9243L61.4859 96.8971H61.4512Z" fill="white"/>
<path d="M83.9672 94.9481C82.8934 96.8453 80.9189 99.4324 76.9526 99.6394C72.6053 99.8464 67.7384 97.38 67.5999 91.9297C67.4267 86.1345 72.7092 83.6509 76.3811 83.4784C79.1869 83.3059 83.1012 84.703 83.5689 88.7389H70.4403C70.042 90.4982 70.1113 92.4644 70.6655 94.0684C71.8952 97.5697 74.701 99.4324 78.1131 99.053C81.3865 98.7253 83.1878 95.8277 83.7247 94.8618L83.9672 94.9653V94.9481ZM70.4923 88.4457H81.1441C80.7111 85.5481 78.0958 83.2197 74.8223 83.8233C72.5534 84.2545 71.1158 86.1863 70.475 88.4457H70.4923Z" fill="white"/>
<path d="M83.9672 94.9481C82.8934 96.8453 80.9189 99.4324 76.9526 99.6394C72.6053 99.8464 67.7384 97.38 67.5999 91.9297C67.4267 86.1345 72.7092 83.6509 76.3811 83.4784C79.1869 83.3059 83.1012 84.703 83.5689 88.7389H70.4403C70.042 90.4982 70.1113 92.4644 70.6655 94.0684C71.8952 97.5697 74.701 99.4324 78.1131 99.053C81.3865 98.7253 83.1878 95.8277 83.7247 94.8618L83.9672 94.9653V94.9481ZM70.4923 88.4457H81.1441C80.7111 85.5481 78.0958 83.2197 74.8223 83.8233C72.5534 84.2545 71.1158 86.1863 70.475 88.4457H70.4923Z" fill="white"/>
<path d="M96.4203 84.6858V88.0146C95.5889 86.3588 94.2899 84.496 92.1422 84.7892C89.3018 85.2204 88.9727 90.7052 88.938 94.172V99.467H86.3054V83.7026H88.938V90.5155C89.2325 87.0487 90.1331 83.4612 93.5105 83.4612C94.8788 83.4612 95.7102 84.0304 96.4203 84.6858Z" fill="white"/>
<path d="M96.4203 84.6858V88.0146C95.5889 86.3588 94.2899 84.496 92.1422 84.7892C89.3018 85.2204 88.9727 90.7052 88.938 94.172V99.467H86.3054V83.7026H88.938V90.5155C89.2325 87.0487 90.1331 83.4612 93.5105 83.4612C94.8788 83.4612 95.7102 84.0304 96.4203 84.6858Z" fill="white"/>
<path d="M109.22 95.0345C109.012 97.6906 107.055 99.6224 103.314 99.6224C101.183 99.6224 98.8797 98.9842 97.0957 97.7596V94.2583C98.2561 96.5868 101.166 99.2084 104.145 99.1739C106.656 99.1394 108.025 98.1046 108.215 96.5178C108.752 92.1196 97.5287 94.0859 98.3254 87.5318C98.5852 85.4103 99.7976 83.4441 103.435 83.4441C105.201 83.4441 106.674 84.1512 108.007 84.8411V88.2734C106.968 85.4448 104.768 83.6856 102.863 83.6856C100.594 83.6856 99.33 84.9791 99.1914 86.3417C98.6891 90.7916 109.583 89.636 109.22 95.0172V95.0345Z" fill="white"/>
<path d="M109.22 95.0345C109.012 97.6906 107.055 99.6224 103.314 99.6224C101.183 99.6224 98.8797 98.9842 97.0957 97.7596V94.2583C98.2561 96.5868 101.166 99.2084 104.145 99.1739C106.656 99.1394 108.025 98.1046 108.215 96.5178C108.752 92.1196 97.5287 94.0859 98.3254 87.5318C98.5852 85.4103 99.7976 83.4441 103.435 83.4441C105.201 83.4441 106.674 84.1512 108.007 84.8411V88.2734C106.968 85.4448 104.768 83.6856 102.863 83.6856C100.594 83.6856 99.33 84.9791 99.1914 86.3417C98.6891 90.7916 109.583 89.636 109.22 95.0172V95.0345Z" fill="white"/>
<path d="M125.327 88.9805V99.467H124.963L122.695 94.8102C122.088 97.2421 120.287 99.6395 116.91 99.6395C113.74 99.6395 110.934 97.4491 110.934 94.517C110.934 87.7387 120.616 87.3937 122.695 91.6539V88.5666C122.695 86.0312 121.326 83.8062 118.953 83.8062C116.788 83.8062 115.212 84.9963 114.675 86.7728L114.45 86.6693C114.987 84.8756 116.581 83.4785 119.265 83.4785C121.95 83.4785 125.345 84.9101 125.345 88.9977L125.327 88.9805ZM122.695 93.0854V92.292C121.396 88.4631 113.342 87.7042 113.342 94.2238C113.342 96.9834 115.351 99.0186 117.654 99.0186C120.755 99.0186 122.556 95.9658 122.695 93.1027V93.0854Z" fill="white"/>
<path d="M125.327 88.9805V99.467H124.963L122.695 94.8102C122.088 97.2421 120.287 99.6395 116.91 99.6395C113.74 99.6395 110.934 97.4491 110.934 94.517C110.934 87.7387 120.616 87.3937 122.695 91.6539V88.5666C122.695 86.0312 121.326 83.8062 118.953 83.8062C116.788 83.8062 115.212 84.9963 114.675 86.7728L114.45 86.6693C114.987 84.8756 116.581 83.4785 119.265 83.4785C121.95 83.4785 125.345 84.9101 125.345 88.9977L125.327 88.9805ZM122.695 93.0854V92.292C121.396 88.4631 113.342 87.7042 113.342 94.2238C113.342 96.9834 115.351 99.0186 117.654 99.0186C120.755 99.0186 122.556 95.9658 122.695 93.1027V93.0854Z" fill="white"/>
<path d="M139.789 95.0345C139.582 97.6906 137.624 99.6224 133.883 99.6224C131.753 99.6224 129.449 98.9842 127.665 97.7596V94.2583C128.826 96.5868 131.736 99.2084 134.715 99.1739C137.226 99.1394 138.594 98.1046 138.785 96.5178C139.322 92.1196 128.098 94.0859 128.895 87.5318C129.155 85.4103 130.367 83.4441 134.005 83.4441C135.771 83.4441 137.243 84.1512 138.577 84.8411V88.2734C137.538 85.4448 135.338 83.6856 133.433 83.6856C131.164 83.6856 129.9 84.9791 129.761 86.3417C129.259 90.7916 140.153 89.636 139.789 95.0172V95.0345Z" fill="white"/>
<path d="M139.789 95.0345C139.582 97.6906 137.624 99.6224 133.883 99.6224C131.753 99.6224 129.449 98.9842 127.665 97.7596V94.2583C128.826 96.5868 131.736 99.2084 134.715 99.1739C137.226 99.1394 138.594 98.1046 138.785 96.5178C139.322 92.1196 128.098 94.0859 128.895 87.5318C129.155 85.4103 130.367 83.4441 134.005 83.4441C135.771 83.4441 137.243 84.1512 138.577 84.8411V88.2734C137.538 85.4448 135.338 83.6856 133.433 83.6856C131.164 83.6856 129.9 84.9791 129.761 86.3417C129.259 90.7916 140.153 89.636 139.789 95.0172V95.0345Z" fill="white"/>
<path d="M165.717 76.1826V99.4669H165.388L163.119 93.9822C162.288 97.4834 159.621 99.6394 156.538 99.6394C152.831 99.6394 149.194 96.3796 149.194 91.5502C149.194 86.7209 152.831 83.4611 156.538 83.4611C159.604 83.4611 162.288 85.5826 163.085 89.0838V76.1826H165.717ZM163.085 91.5502C163.085 88.4284 161.387 83.9268 156.902 84.2028C154.234 84.3752 151.931 87.3246 151.931 91.5502C151.931 95.7759 154.234 98.777 156.902 98.8977C161.37 99.1564 163.085 94.6721 163.085 91.5502Z" fill="white"/>
<path d="M165.717 76.1826V99.4669H165.388L163.119 93.9822C162.288 97.4834 159.621 99.6394 156.538 99.6394C152.831 99.6394 149.194 96.3796 149.194 91.5502C149.194 86.7209 152.831 83.4611 156.538 83.4611C159.604 83.4611 162.288 85.5826 163.085 89.0838V76.1826H165.717ZM163.085 91.5502C163.085 88.4284 161.387 83.9268 156.902 84.2028C154.234 84.3752 151.931 87.3246 151.931 91.5502C151.931 95.7759 154.234 98.777 156.902 98.8977C161.37 99.1564 163.085 94.6721 163.085 91.5502Z" fill="white"/>
<path d="M184.475 94.9481C183.401 96.8453 181.427 99.4324 177.46 99.6394C173.113 99.8464 168.246 97.38 168.108 91.9297C167.934 86.1345 173.217 83.6509 176.889 83.4784C179.695 83.3059 183.609 84.703 184.077 88.7389H170.948C170.55 90.4982 170.619 92.4644 171.173 94.0684C172.403 97.5697 175.209 99.4324 178.621 99.053C181.894 98.7253 183.696 95.8277 184.232 94.8618L184.475 94.9653V94.9481ZM171 88.4457H181.652C181.219 85.5481 178.603 83.2197 175.33 83.8233C173.061 84.2545 171.624 86.1863 170.983 88.4457H171Z" fill="white"/>
<path d="M184.475 94.9481C183.401 96.8453 181.427 99.4324 177.46 99.6394C173.113 99.8464 168.246 97.38 168.108 91.9297C167.934 86.1345 173.217 83.6509 176.889 83.4784C179.695 83.3059 183.609 84.703 184.077 88.7389H170.948C170.55 90.4982 170.619 92.4644 171.173 94.0684C172.403 97.5697 175.209 99.4324 178.621 99.053C181.894 98.7253 183.696 95.8277 184.232 94.8618L184.475 94.9653V94.9481ZM171 88.4457H181.652C181.219 85.5481 178.603 83.2197 175.33 83.8233C173.061 84.2545 171.624 86.1863 170.983 88.4457H171Z" fill="white"/>
<path d="M23.9188 123.648C23.9188 125.476 23.5724 127.253 22.8623 129.012C22.1695 130.616 21.1649 132.099 19.9006 133.479C18.6189 134.756 17.1467 135.756 15.4667 136.48C13.8213 137.239 12.02 137.636 10.0802 137.67V143H2.35547V109.591H10.0802C12.0373 109.626 13.8213 110.023 15.4667 110.781C17.164 111.575 18.6536 112.592 19.9006 113.834C21.2169 115.197 22.2041 116.68 22.8623 118.25C23.5551 120.009 23.9188 121.82 23.9188 123.665V123.648ZM10.0802 129.978C10.8769 129.943 11.6736 129.754 12.505 129.392C13.2324 129.064 13.8732 128.598 14.4275 128.029C14.9817 127.477 15.4147 126.839 15.7611 126.08C16.0729 125.39 16.2114 124.579 16.2114 123.665C16.2114 122.751 16.0556 121.958 15.7611 121.251C15.484 120.578 15.051 119.923 14.4275 119.25C13.8732 118.698 13.2324 118.25 12.505 117.887C11.7429 117.577 10.9289 117.404 10.0802 117.335V129.978Z" fill="white"/>
<path d="M25.7028 109.54H33.4275V135.307H45.6727V143H25.7028V109.557V109.54Z" fill="white"/>
<path d="M57.5542 138.947L56.1859 143H48.0109L59.442 109.591H66.7511L77.576 143H69.4357L68.102 138.947H57.5368H57.5542ZM62.9926 123.148L60.2041 131.254H65.6426L62.9926 123.148Z" fill="white"/>
<path d="M108.648 143H100.283L89.3191 123.527V143H81.5944V109.678H89.9945L100.923 129.116V109.591H108.648V143Z" fill="white"/>
<path d="M125.552 117.18V142.983H117.828V117.18H111.437V109.436H131.995V117.18H125.552Z" fill="white"/>
<path d="M138.179 138.947L136.81 143H128.635L140.067 109.591H147.376L158.201 143H150.06L148.727 138.947H138.161H138.179ZM143.617 123.148L140.829 131.254H146.267L143.617 123.148Z" fill="white"/>
<path d="M166.653 110.868C168.783 109.988 170.965 109.54 173.182 109.54C175.399 109.54 177.582 109.971 179.712 110.868C181.79 111.713 183.574 112.903 185.064 114.421C186.588 115.938 187.783 117.715 188.666 119.75C189.55 121.872 190 124.045 190 126.252C190 128.46 189.55 130.633 188.666 132.755C187.835 134.704 186.64 136.463 185.064 138.033C183.54 139.55 181.756 140.74 179.712 141.62C177.582 142.5 175.399 142.948 173.182 142.948C170.965 142.948 168.783 142.517 166.653 141.62C164.696 140.809 162.929 139.602 161.353 138.033C159.777 136.463 158.564 134.687 157.75 132.755C156.867 130.633 156.417 128.46 156.417 126.252C156.417 124.045 156.85 121.872 157.75 119.75C158.634 117.715 159.829 115.938 161.353 114.421C162.842 112.937 164.609 111.747 166.653 110.868ZM169.666 134.531C170.671 135.014 171.849 135.256 173.182 135.256C174.516 135.256 175.694 135.014 176.698 134.531C177.789 134.083 178.759 133.445 179.573 132.617C180.387 131.806 181.046 130.84 181.531 129.754C181.981 128.667 182.223 127.494 182.223 126.252C182.223 125.011 181.998 123.838 181.531 122.751C181.046 121.665 180.387 120.699 179.573 119.888C178.742 119.06 177.789 118.422 176.698 117.939C175.607 117.491 174.429 117.249 173.182 117.249C171.935 117.249 170.758 117.473 169.666 117.939C168.575 118.422 167.605 119.077 166.791 119.888C165.96 120.699 165.336 121.665 164.869 122.751C164.384 123.752 164.141 124.924 164.141 126.252C164.141 127.581 164.384 128.753 164.869 129.754C165.319 130.84 165.96 131.806 166.791 132.617C167.623 133.445 168.575 134.066 169.666 134.531Z" fill="white"/>
<path d="M135.425 106.745C135.286 103.296 137.157 101.537 139.547 101.537C141.002 101.537 142.11 101.985 144.431 103.089C146.198 103.917 147.48 104.538 148.761 104.538C150.043 104.538 150.597 103.537 150.632 101.64H152.71C152.883 105.504 150.874 106.849 148.727 106.849C147.341 106.849 146.094 106.435 143.704 105.331C142.076 104.538 140.794 103.813 139.547 103.813C138.3 103.813 137.538 104.676 137.469 106.745H135.425Z" fill="white"/>
</g>
<defs>
<clipPath id="clip0_459_546">
<rect width="190" height="143" fill="white"/>
</clipPath>
</defs>
</svg>
